<?xml version="1.0" encoding="utf-8"?>
<!-- Generator: Adobe Illustrator 18.1.1, SVG Export Plug-In . SVG Version: 6.00 Build 0)  -->
<svg version="1.1" id="Layer_1" xmlns="http://www.w3.org/2000/svg" xmlns:xlink="http://www.w3.org/1999/xlink" x="0px" y="0px"
	 viewBox="0 0 293.1 372.8" enable-background="new 0 0 293.1 372.8" xml:space="preserve">
<g>
	<g>
		<g>
			<path fill="#FFFFFF" d="M293.1,36.6c0-25.4-13.6-36.6-38.9-36.6C254.2,0,0,0,0,0s0,308.6,0,308.6c12.7-1.1,24.2-1.8,35-1.9
				c45.2-0.2,76.3,9,115.7,25.5c3.7,1.5,36.4,14.6,43.3,17.2c22.5,8.4,59.8,25.1,99.1,23.2L293.1,36.6z"/>
		</g>
	</g>
	<g>
		<g>
			<g>
				<linearGradient id="SVGID_1_" gradientUnits="userSpaceOnUse" x1="146.5344" y1="7.2746" x2="146.5344" y2="365.2087">
					<stop  offset="0" style="stop-color:#4697D4"/>
					<stop  offset="0.1623" style="stop-color:#3D86C8"/>
					<stop  offset="0.3865" style="stop-color:#2C69B3"/>
					<stop  offset="1" style="stop-color:#00285A"/>
				</linearGradient>
				<path fill="url(#SVGID_1_)" d="M253.1,7.3H7.3v167.5c79.9-9.3,118.1,5.6,159.7,22.2c3.5,1.4,7.1,2.8,10.8,4.3
					c6.3,2.5,12.3,4.9,18.2,7.2c36,14.3,63.4,25.2,89.9,28.4c0,0,0-190,0-199.3C285.8,17.2,276.8,7.3,253.1,7.3z M174.2,222.3
					c-3.7-1.4-7.2-2.9-10.8-4.3c-40.9-16.4-78.6-31.1-156.1-22.6v21.3c76.3-8,113.8,6.6,154.4,22.8c3.5,1.4,7.1,2.8,10.8,4.3
					c6.3,2.5,12.3,4.9,18.2,7.2c38.4,15.3,67,26.6,95.2,29v-21.6c-27.6-2.7-55.9-13.9-93.4-28.8
					C186.5,227.1,180.4,224.7,174.2,222.3z M168.9,264.7c-3.7-1.4-7.3-2.9-10.8-4.3c-40-16-76.9-30.4-150.8-23.1v21.3
					c72.7-6.8,109.4,7.5,149.1,23.3c3.5,1.4,7.1,2.8,10.8,4.3c6.3,2.5,12.3,4.9,18.2,7.2c40.8,16.2,70.5,28,100.5,29.3v-21.5
					c-29.4-1.7-58.7-13.3-98.7-29.3C181.2,269.6,175.1,267.1,168.9,264.7z M163.6,307.1c-3.7-1.4-7.2-2.9-10.8-4.3
					c-39-15.6-75.1-29.7-145.5-23.6v21.3c69.3-5.7,105.1,8.3,143.8,23.8c3.5,1.4,7.1,2.8,10.8,4.3c6.3,2.5,12.3,4.9,18.2,7.2
					c42.8,17,73.5,29.2,105,29.5l0.8,0v-21.5c-31.2-0.5-61.6-12.6-104-29.4C175.9,312,169.8,309.5,163.6,307.1z"/>
			</g>
		</g>
		<g>
			<path fill="#FFFFFF" d="M71.9,39.9H33.3l0,7.3c8,0,7.5,2.8,7.5,16.8v70H54v-30.4c0-5.7,1.1-8.7,8.7-8.7l6.5,0
				c20.1,0,30.8-13,30.8-29.8C100.1,48.5,88.1,39.9,71.9,39.9z M69.1,85.1c0,0-15.1,0-15.1,0l0-15.2c0-14.3,0.4-19.5-4.8-20.9
				l15.6,0c14.7,0,20.7,5.9,20.7,18.5C85.6,77.4,80.2,85.1,69.1,85.1z"/>
			<path fill="#FFFFFF" d="M238.2,83.6l-17.6-7.1c-7.7-3.1-10.7-6.5-10.7-12c0-7.9,4.7-15.2,18.7-15.2c7.3,0,16.3,2.1,19.1,10.5h5.1
				c0-4.1,0-13.1,0-13.1c-5.6-4.3-15.6-7.3-23-7.5c-21.5-0.6-34.9,11.3-34.9,27.6c0,10.1,6.5,16.8,19.1,21.9l16.6,6.5
				c7.9,3.1,11.1,7.3,11.1,13.4c0,9-5.2,16.3-18.1,16.3c-11.7,0-21.8-6.7-24.8-18.1h-4.9v19.8c8.1,4.4,18.7,8.3,28.3,8.5
				c24.9,0,34.6-13.3,34.6-28.6C256.7,96.9,250.3,88.5,238.2,83.6z"/>
			<path fill="#FFFFFF" d="M150.9,49.6c12.9-0.2,22.2,2.9,25.1,10.1h5.4c0-5.5,0-12.9,0-12.9c-4.1-3.8-15.3-7.8-28-7.8
				c-28,0-46.9,19.4-46.9,49.2c0,27.9,17,46.6,45.1,46.6c11.4,0,19.9-3.4,29.8-8.3V85.9h-25.1v7.9l4.4,0c8,0,7.5,2.8,7.5,16.8v9.7
				c0,0.4,0,0.6-0.1,0.6c-2.6,1.1-8.4,2.6-15,2.6c-19.5,0-31.5-11.6-31.5-38.5C121.8,63.4,133.8,49.9,150.9,49.6z"/>
		</g>
	</g>
</g>
</svg>
